<svg version="1.1" id="Layer_1" xmlns="http://www.w3.org/2000/svg" xmlns:xlink="http://www.w3.org/1999/xlink" x="0px" y="0px"
	 width="100%" viewBox="0 0 512 512" enable-background="new 0 0 512 512" xml:space="preserve">
<path fill="#000000" opacity="1.000000" stroke="none" 
	d="
M1.000000,267.468658 
	C3.492576,272.675995 2.470330,278.826141 3.053504,284.708038 
	C7.003829,324.550964 20.004238,361.180176 41.758003,394.610870 
	C80.669182,454.408691 135.289505,491.836304 204.847946,507.342224 
	C217.805786,510.230835 231.057480,511.643677 244.382660,511.924347 
	C245.352005,511.944763 246.312988,512.362244 247.638931,512.797546 
	C165.739777,513.000000 83.479546,513.000000 1.000000,513.000000 
	C1.000000,431.312561 1.000000,349.624939 1.000000,267.468658 
z"/>
<path fill="#000000" opacity="1.000000" stroke="none" 
	d="
M244.531342,1.000000 
	C240.043091,3.532527 234.538559,2.571786 229.345352,3.081135 
	C187.366699,7.198392 149.078629,21.477028 114.347778,45.028629 
	C61.719887,80.716507 27.103575,129.567169 10.095568,190.815659 
	C5.598248,207.011200 2.972144,223.563477 2.244564,240.391098 
	C2.159158,242.366364 1.710026,244.325897 1.214756,246.646362 
	C1.000000,165.073257 1.000000,83.146523 1.000000,1.000000 
	C82.020760,1.000000 163.041718,1.000000 244.531342,1.000000 
z"/>
<path fill="#000000" opacity="1.000000" stroke="none" 
	d="
M265.468658,513.000000 
	C271.182281,510.364441 277.823761,511.608459 284.213806,510.993805 
	C327.266296,506.852753 366.381470,492.088226 401.736542,467.563599 
	C454.591522,430.899841 489.042969,381.186218 505.037292,318.838531 
	C509.046967,303.208191 511.457245,287.291962 511.774872,271.104492 
	C511.810242,269.303009 512.297058,267.510406 512.787231,265.356842 
	C513.000000,347.593719 513.000000,430.187408 513.000000,513.000000 
	C430.645905,513.000000 348.291595,513.000000 265.468658,513.000000 
z"/>
<path fill="#000000" opacity="1.000000" stroke="none" 
	d="
M513.000000,247.531342 
	C510.455536,241.988785 511.588165,235.526245 510.953217,229.308304 
	C505.890503,179.731598 487.316193,135.810959 456.276855,97.074509 
	C424.625610,57.574352 384.532562,30.069136 336.563263,14.080667 
	C315.654053,7.111497 294.158112,3.059694 272.091156,2.223344 
	C270.622314,2.167674 269.168915,1.704912 267.354156,1.215748 
	C348.927185,1.000000 430.854370,1.000000 513.000000,1.000000 
	C513.000000,83.020767 513.000000,165.041718 513.000000,247.531342 
z"/>
<path fill="#000000" opacity="1.000000" stroke="none" 
	d="
M211.344055,334.295471 
	C238.249130,317.537994 265.609772,302.500122 295.338379,291.727661 
	C296.141907,293.147644 296.844635,294.081848 297.239777,295.131866 
	C316.661530,346.739075 332.066956,399.482635 342.129944,453.742004 
	C342.837830,457.558868 341.512726,459.433044 337.866730,460.797729 
	C316.876160,468.654266 295.386444,473.963989 272.929504,475.480560 
	C218.970810,479.124542 170.212952,465.197266 126.565727,433.203247 
	C122.766525,430.418365 122.604904,428.174591 124.626091,424.143829 
	C138.279129,396.916229 158.986679,375.648254 181.603073,355.962921 
	C190.790802,347.965881 200.619537,340.816681 211.344055,334.295471 
z"/>
<path fill="#000000" opacity="1.000000" stroke="none" 
	d="
M188.445984,236.256592 
	C211.626389,232.084564 234.076797,226.691559 256.287628,220.276062 
	C263.282959,218.255508 263.362274,218.241318 266.444489,224.586517 
	C270.808014,233.569534 274.954102,242.659180 279.392303,251.604416 
	C281.174103,255.195694 280.430023,256.933441 276.549591,258.043610 
	C246.056488,266.767517 219.382187,283.143066 193.004089,300.059570 
	C157.593048,322.768951 128.630264,352.065704 105.008362,386.746246 
	C101.466995,391.945496 98.285645,397.389984 94.288338,403.755157 
	C89.583084,397.982513 85.093185,392.950989 81.131378,387.533325 
	C60.877815,359.837158 47.370705,329.178375 41.237103,295.358673 
	C38.858425,282.243011 38.265831,268.961090 37.693077,255.676590 
	C37.505802,251.332916 38.937233,249.637085 43.678402,249.529755 
	C70.288467,248.927414 96.917015,248.201019 123.408546,245.498795 
	C145.052414,243.291061 166.624619,240.363495 188.445984,236.256592 
z"/>
<path fill="#000000" opacity="1.000000" stroke="none" 
	d="
M122.156693,208.329742 
	C95.729347,211.046494 69.716072,212.805405 43.895092,212.232971 
	C42.188362,209.962738 43.333481,208.175003 43.748081,206.538330 
	C60.509727,140.370071 99.404778,91.808174 159.981491,60.472771 
	C163.032379,58.894596 164.730316,59.603733 166.628677,62.190025 
	C194.557022,100.239120 219.833527,139.991730 243.145111,181.010605 
	C243.864960,182.277222 244.349106,183.677826 245.244431,185.694687 
	C204.650055,196.489395 163.940155,204.029922 122.156693,208.329742 
z"/>
<path fill="#000000" opacity="1.000000" stroke="none" 
	d="
M238.872406,38.671425 
	C271.109314,36.021309 302.059174,39.989311 332.064301,50.714424 
	C356.954498,59.611248 379.095276,73.271149 399.153107,90.420441 
	C401.804901,92.687683 401.059021,94.478279 399.339752,96.746819 
	C391.138306,107.568520 381.378662,116.876503 370.939789,125.432014 
	C346.899811,145.134766 319.726257,159.419235 291.065521,171.114395 
	C287.309143,172.647202 286.076538,170.859863 284.588654,168.171127 
	C273.383362,147.922165 261.698883,127.956314 249.214127,108.462975 
	C236.637970,88.826965 223.345749,69.692596 209.367737,51.029125 
	C207.923447,49.100716 205.846695,47.430557 205.746567,44.223152 
	C216.471008,41.371494 227.375488,39.669662 238.872406,38.671425 
z"/>
<path fill="#000000" opacity="1.000000" stroke="none" 
	d="
M396.400574,245.837311 
	C373.112152,244.830826 350.311035,245.106079 327.610474,247.834290 
	C324.061523,248.260818 322.538239,247.317490 321.193176,244.222687 
	C316.083130,232.465591 310.927887,220.719513 305.380005,209.165985 
	C303.448914,205.144455 304.658203,203.631927 308.238922,202.137512 
	C327.658600,194.032700 346.109283,184.060730 363.786285,172.672028 
	C386.047638,158.329788 406.199554,141.543228 423.025848,120.958679 
	C423.844208,119.957535 424.444519,118.648293 426.796021,118.383209 
	C459.028534,157.721680 475.205963,203.101273 476.074158,255.152344 
	C449.415405,250.200272 423.262299,246.900726 396.400574,245.837311 
z"/>
<path fill="#000000" opacity="1.000000" stroke="none" 
	d="
M343.198364,302.669922 
	C340.898560,295.858490 338.746277,289.414337 336.593292,282.968170 
	C340.164764,279.670532 344.501160,280.418121 348.227203,279.984589 
	C368.759399,277.595856 389.308502,277.371674 409.959717,279.368591 
	C429.553619,281.263336 448.738251,284.928833 467.789856,289.670685 
	C472.149353,290.755768 473.507812,292.244019 472.558319,297.136932 
	C462.850250,347.164642 438.727722,388.820374 400.630859,422.510376 
	C394.167358,428.226196 387.484467,433.643158 378.965790,438.845703 
	C370.126038,392.230133 358.676147,347.107727 343.198364,302.669922 
z"/>
</svg>